<?xml version="1.0" encoding="utf-8"?>
<!-- Generator: Adobe Illustrator 27.5.0, SVG Export Plug-In . SVG Version: 6.00 Build 0)  -->
<svg version="1.1" xmlns="http://www.w3.org/2000/svg" xmlns:xlink="http://www.w3.org/1999/xlink" x="0px" y="0px"
	 viewBox="0 0 800 800" style="enable-background:new 0 0 800 800;" xml:space="preserve">
<g id="Layer_1">
</g>
<g id="Layer_3">
</g>
<g id="Layer_2">
	<g>
		<path id="XMLID_41_" style="fill:#F9AF80;" d="M363.24,335.619c10.817-11.935,17.38-19.138,41.552-19.528
			c19.844-0.309,33.023,9.62,37.819,13.955c9.968-12.168,20.121-26.256,23.317-35.31c5.988-16.966-1.571-46.89-3.225-52.984
			c-26.461-16.675-54.97-21.46-84.961-14.196c-15.308,3.708-27.614,9.888-35.249,14.417c-1.245,5.307-3.288,14.605-3.288,17.426
			c0,0.672-0.027,1.922-0.065,3.581c-0.184,8.042-0.669,29.402,1.474,35.221C342.671,303.781,351.823,321.756,363.24,335.619z
			 M422.243,308.428c0,0,5.039-4.367,0.448-10.302c-2.17-2.805-3.858-3.674-5.042-3.821c-0.73,3.104-4.812,3.598-4.812,3.598
			c6.271-3.695-1.792-15.341-1.792-15.341c4.395,4.359,6.204,7.492,6.622,9.741c2.261,0.882,6.193,2.926,8.047,6.944
			C428.402,305.069,425.714,308.54,422.243,308.428z M424.902,272.595c7.391,1.932,21.248-0.084,21.248-0.084
			C434.477,280.405,424.902,272.595,424.902,272.595z M446.095,266.1c-4.031-4.255-6.719-4.703-6.719-4.703
			c0.224,3.135-2.24,5.543-2.24,5.543l-6.999-0.056c-2.016-2.184-1.512-5.935-1.512-5.935c-4.031,1.792-5.599,5.823-5.599,5.823
			l-4.255-0.448l0.896-1.12c2.688-4.479,8.287-7.839,14.333-7.839c6.047,0,12.094,5.375,13.662,6.495
			c1.568,1.12,3.583,1.568,3.583,1.568L446.095,266.1z M416.532,247.959c6.047-6.495,29.787-6.719,34.714-1.344
			c4.927,5.375,4.927,9.854,4.927,9.854s-4.927-7.167-10.526-7.167c-5.599,0-22.844-0.672-25.084,1.792
			c-2.24,2.464-7.839,7.839-10.75,18.589C409.813,269.683,410.485,254.454,416.532,247.959z M413.956,302.829
			c4.815,0.336,3.695,3.471,3.695,3.471s-0.224-1.68-2.799-1.904c-2.576-0.224-2.016,3.023-6.607,1.344
			C408.245,305.741,409.141,302.493,413.956,302.829z M375.827,266.884l-6.999,0.056c0,0-2.464-2.408-2.24-5.543
			c0,0-2.688,0.448-6.719,4.703l-5.151-0.672c0,0,2.016-0.448,3.583-1.568c1.568-1.12,7.615-6.495,13.662-6.495
			c6.047,0,11.646,3.359,14.334,7.839l0.896,1.12l-4.255,0.448c0,0-1.568-4.031-5.599-5.823
			C377.339,260.948,377.843,264.7,375.827,266.884z M359.814,272.51c0,0,13.857,2.016,21.248,0.084
			C381.062,272.595,371.488,280.405,359.814,272.51z M383.722,308.428c-3.471,0.112-6.159-3.359-3.471-9.182
			c1.854-4.018,5.787-6.062,8.047-6.944c0.418-2.249,2.228-5.382,6.622-9.741c0,0-8.063,11.646-1.792,15.341
			c0,0-4.082-0.493-4.812-3.598c-1.184,0.147-2.872,1.016-5.042,3.821C378.683,304.061,383.722,308.428,383.722,308.428z
			 M397.719,305.741c-4.591,1.68-4.031-1.568-6.607-1.344c-2.576,0.224-2.799,1.904-2.799,1.904s-1.12-3.135,3.695-3.471
			C396.823,302.493,397.719,305.741,397.719,305.741z M354.719,246.615c4.927-5.375,28.667-5.151,34.714,1.344
			c6.047,6.495,6.719,21.724,6.719,21.724c-2.911-10.75-8.51-16.125-10.75-18.589c-2.24-2.463-19.485-1.792-25.084-1.792
			c-5.599,0-10.526,7.167-10.526,7.167S349.792,251.99,354.719,246.615z"/>
		<g id="XMLID_3_">
			<path id="XMLID_77_" style="fill:#EDF2F3;" d="M359.87,266.1c0,0,7.615,1.232,23.068,0.672c0,0-0.896-7.615-11.198-7.503
				C371.74,259.269,363.453,259.269,359.87,266.1z"/>
			<path id="XMLID_14_" style="fill:#EDF2F3;" d="M446.095,266.1c0,0-7.615,1.232-23.068,0.672c0,0,0.896-7.615,11.198-7.503
				C434.225,259.269,442.511,259.269,446.095,266.1z"/>
		</g>
		<path id="XMLID_27_" style="fill:#F9AF80;" d="M418.378,345.151l0.361,1.44c0.649,2.587,1.688,5.309,2.491,6.658
			c1.971-1.535,5.836-5.412,10.516-10.574c-3.47-4.891-8.966-11.657-11.831-12.76c-4.59-1.765-30.83-2.028-37.39,2.808
			c-5.474,4.033-8.445,10.813-9.346,13.151c4.472,3.742,9.065,6.339,13.551,6.987l5.399-6.67c-5.716-1.605-9.041-5.634-10.209-6.801
			c0,0,6.407,5.048,23.493,5.048c15.338,0,19.804-4.271,19.804-4.271C423.01,343.109,419.804,344.6,418.378,345.151z
			 M424.116,337.448c-1.165-0.13-16.827-1.553-17.733-1.036c-0.906,0.518-1.942,1.424-2.459,1.553
			c-0.518,0.129-1.553-1.165-2.718-1.424c-1.165-0.259-19.027,0.906-19.027,0.906c2.977-2.2,17.992-3.365,19.545-2.977
			c1.553,0.388,1.913,1.624,4.53,0.388C410.914,332.659,425.281,337.578,424.116,337.448z"/>
		<path id="XMLID_37_" style="fill:#E0E0E0;" d="M478.766,247.508c0.003-0.017,0.006-0.029,0.01-0.047
			c0.937-5.151,6.289-50.409,7.118-57.447c-3.754-4.878-29.155-34.893-86.056-33.519c-58.191,1.419-71.503,40.279-72.767,44.476
			l4.322,42.728c0.887-0.674,3.303-2.447,7.03-4.746c0.027-0.11,0.056-0.231,0.073-0.299l0.297,0.072
			c7.778-4.756,20.99-11.615,37.853-15.699C401.75,216.945,439.827,216.269,478.766,247.508z"/>
		<path id="XMLID_18_" style="fill:#F9AF80;" d="M333.59,295.455l-0.307,1.026L333.59,295.455c-2.695-0.738-3.915-3.589-3.915-3.589
			c1.618,0.766,2.806,0.525,3.627,0.036l-0.018-0.226l-0.34-0.971l0.34,0.971l0.018,0.226c0.005-0.003,0.011-0.005,0.016-0.008
			c-1.118-14.769-2.169-30.496-2.737-39.21c-2.355-0.47-7.256-0.725-10.332,4.195c-4.843,7.75-4.008,31.106,0.212,37.323
			c2.196,3.236,7.337,10.812,11.033,10.835c0.38,0.031,1.376,0.002,2.729-1.635C334.012,300.846,333.801,298.175,333.59,295.455z
			 M326.766,277.317c-1.69-2.253-1.408-4.224-1.408-8.166c0-3.942-5.632-3.942-5.632-3.942c5.984-7.322,9.926,2.957,9.433,7.251
			c-0.493,4.294-2.393,4.294-0.281,6.758c2.112,2.464,2.675,7.11,2.675,7.11s-2.534,0.281-3.379-0.563
			C327.329,284.92,328.455,279.57,326.766,277.317z"/>
		<path id="XMLID_92_" style="fill:#E0E0E0;" d="M399.726,151.836c7.817-0.194,15.047,0.183,21.737,0.982
			c5.52-2.269,13.496-6.265,16.244-10.043c4.142-5.695,7.766-11.391,7.766-11.391s0.518,19.157-3.624,22.781
			c-1.083,0.947-1.098,1.823-0.539,2.601c13.953,3.985,24.591,9.801,32.321,15.35c11.072,4.171,26.947,9.682,35.266,10.396
			c13.591,1.165,27.57-6.213,27.57-6.213c-8.543,13.591-40.773,13.979-40.773,13.979c5.048,8.154,35.336,16.697,42.714,16.697
			c7.378,0,17.862-12.426,17.862-12.426s-1.942,8.931-13.979,15.533c-8.301,4.552-24.726,0.795-36.161-2.741
			c9.358,7.045,20.502,13.584,29.172,13.096c16.321-0.92,30.794-5.725,32.565-18.934c-6.487-13.503-25.156-29.05-25.377-29.233
			l-1.39-1.148l0.762-1.633c0.021-0.058,4.12-10.917-17.063-33.535c-23.61-25.209-40.529-38.143-67.483-38.871
			c-11.323-0.306-20.72,0.24-30.66,0.82c-15.478,0.901-31.484,1.833-57.59-0.049c-42.246-3.047-60.19,22.324-61.583,39.031
			c-0.36,4.328-2.006,9.352-3.749,14.67c-2.51,7.662-5.255,16.079-5.193,24.711c3.265,4.497,8.978,10.059,16.976,9.353
			c7.1-0.627,13.732-3.384,18.364-5.802C344.528,166.992,364.272,152.701,399.726,151.836z"/>
		<path id="XMLID_94_" style="fill:#E0E0E0;" d="M445.671,406.409c-7.314,2.845-13.782,4.952-19.487,6.811
			c-21.716,7.077-31.474,10.262-34.888,36.999c3.996-0.947,6.953-1.168,7.295-1.191c73.526-7.448,90.717-56.201,92.893-63.545
			c-2.793-4.245-14.491-22.296-17.793-31.733c-0.745-2.13-1.429-3.436-1.972-4.233C474.027,360.357,478.181,393.766,445.671,406.409
			z"/>
		<path id="XMLID_95_" style="fill:#F9AF80;" d="M404.442,380.162c-17.272,0-42.109-19.564-56.544-36.396l-2.183,44.703
			c1.5,6.796,5.637,11.529,9.988,16.484c4.72,5.376,9.602,10.936,10.665,19.179c2.083,16.138-0.042,35.747-0.128,36.54
			c0,0,1.707,2.238,3.063,3.753c3.96-6.848,10.963-10.681,17.139-12.805c3.566-31.499,15.448-35.383,38.299-42.831
			c5.647-1.84,12.048-3.926,19.241-6.723c20.284-7.889,24.725-24.521,24.798-37.38l-4.28-29.525
			C452.58,351.577,426.967,380.162,404.442,380.162z"/>
		<path id="XMLID_96_" style="fill:#E0E0E0;" d="M305.198,196.471c1.326,1.827,2.892,3.645,4.712,5.449
			c5.221-0.022,10.172-1.839,12.967-3.099c0.097-0.285,0.214-0.614,0.348-0.977C319.359,198.148,310.74,198.521,305.198,196.471z"/>
		<path id="XMLID_98_" style="fill:#F9AF80;" d="M479.402,254.276c-0.791,9.906-2.622,31.765-4.675,48.825
			c1.473,1.92,2.591,1.969,2.958,1.936c3.695-0.023,8.837-7.599,11.034-10.835c4.22-6.219,5.054-29.575,0.211-37.323
			c-1.23-1.968-2.682-3.143-4.314-3.493c-2.606-0.557-5.059,1.061-5.084,1.078L479.402,254.276z"/>
		<path id="XMLID_102_" style="fill:#E0E0E0;" d="M201.332,618.924c12.917-41.144,49.405-44.36,56.871-44.589
			c1.311-1.96,4.35-6.282,8.63-11.104c-8.77-1.413-73.118-9.932-95.853,39.247c-24.131,52.201,8.409,68.731,8.74,68.892l0.398,0.193
			l0.3,0.328c0.148,0.161,14.981,16.081,30.959,16.505c5.478,0.108,10.538-1.588,15.063-5.154
			C216.915,677.609,189.238,657.445,201.332,618.924z"/>
		<path id="XMLID_103_" style="fill:#F9AF80;" d="M255.105,579.199l0.039-0.061c-10.706,0.918-38.528,6.662-49.366,41.181
			c-12.634,40.239,20.888,58.029,25.237,60.142c51.646,0.801,100.555-6.945,115.209-9.508c-20.861-21.818-45.706-52.655-67.4-92.94
			L255.105,579.199z"/>
		<path id="XMLID_107_" style="fill:#E0E0E0;" d="M264.604,558.212c-0.914-1.584-1.955-3.425-3.082-5.488
			c-1.923-3.539-4.098-7.71-6.16-12.332c-1.038-2.307-2.005-4.751-2.889-7.283c-0.795-2.553-1.58-5.275-1.677-8.094l-0.093-1.994
			l-0.207-1.894c-0.178-1.271-0.381-2.562-0.646-3.83c-0.498-2.544-1.11-5.044-1.682-7.476c-1.169-4.855-2.147-9.453-2.6-13.445
			c-0.247-1.992-0.359-3.833-0.384-5.461c-0.044-1.63,0.035-3.048,0.123-4.213c0.049-1.167,0.253-2.069,0.314-2.689
			c0.085-0.618,0.13-0.947,0.13-0.947s-0.027,0.332-0.078,0.954c-0.027,0.624-0.18,1.529-0.165,2.693
			c-0.025,1.163-0.026,2.571,0.106,4.183c0.113,1.61,0.323,3.422,0.675,5.376c0.663,3.919,2.66,8.031,4.09,12.809
			c0.703,2.393,1.455,4.867,2.106,7.436c0.341,1.281,0.622,2.588,0.885,3.93l0.334,2.052l0.201,1.986
			c0.224,2.519,0.278,5.283,1.166,7.679c0.976,2.368,2.033,4.669,3.166,6.857c2.249,4.381,4.607,8.358,6.684,11.727
			c2.081,3.369,3.904,6.125,5.192,8.04c0.132,0.192,0.253,0.369,0.373,0.544c10.001-10.084,24.595-20.072,39.585-13.83
			c19.723,8.218,71.936,31.677,92.253,40.831c3.182-44.955,18.361-71.526,23.156-78.895c-5.241-3.255-20.141-12.35-39.753-22.973
			c-25.18-13.639-51.113-62.066-52.204-64.121l-0.273-0.513v-0.58c0-0.167,0.011-3.456,0.746-17.804
			c-13.074,8.934-51.168,34.703-69.302,44.202c-2.155,1.128-4.191,2.08-6.161,3c-17.081,7.974-29.508,13.784-63.33,120.739
			C221.246,554.438,253.365,556.784,264.604,558.212z M399.523,505.975c6.424,0,11.649,5.226,11.649,11.649
			c0,6.424-5.225,11.649-11.649,11.649s-11.649-5.226-11.649-11.649C387.873,511.201,393.099,505.975,399.523,505.975z
			 M327.685,498.597c5.781,0,10.484,4.704,10.484,10.484c0,5.781-4.704,10.484-10.484,10.484c-5.781,0-10.484-4.704-10.484-10.484
			C317.201,503.301,321.904,498.597,327.685,498.597z"/>
		<path id="XMLID_110_" style="fill:#E0E0E0;" d="M559.372,439.975c-23.863-11.932-54.915-41.388-64.266-50.534
			c-1.914,5.456-6.517,16.026-16.297,27.204c-12.676,14.487-36.815,32.67-79.828,37.026c-0.119,0.009-9.54,1.916-9.54,1.916
			c-6.098,1.87-13.455,5.506-16.778,12.456c5.014,5.181,10.196,9.57,15.284,12.325c24.638,13.347,41.907,24.309,42.079,24.418
			l2.111,1.344l-1.494,2.013c-0.206,0.278-20.488,28.182-23.783,80.236c1.583,0.714,2.708,1.222,3.283,1.482
			c2.823,0.093,15.799,1.019,22.319,10.098c0.898-1.013,2.113-2.017,3.736-2.744c0.567-0.253,1.156-0.461,1.766-0.625
			c-1.904-3.445-1.7-7.696,0.608-12.644c4.373-9.371,14.392-18.656,24.078-27.635c6.75-6.257,13.125-12.165,16.479-17.197
			c1.858-2.786,4.441-7.772,7.431-13.544c10.592-20.441,26.596-51.331,46.5-58.794l-3.971,3.863
			c-15.921,12.232-28.752,38.47-38.391,57.074c-3.179,6.137-5.691,10.985-7.692,13.985c-3.659,5.49-10.231,11.58-17.187,18.029
			c-9.359,8.675-19.036,17.645-23.024,26.19c-1.685,3.61-1.905,6.501-0.654,8.593c0.416,0.693,0.972,1.285,1.612,1.79
			c2.821,0.37,11.104,1.705,16.605,4.747c9.322,5.155,19.286,17.539,19.286,17.539L456.868,604.1
			c28.451,39.786,30.237,72.54,26.558,93.267c-3.242,18.267-10.972,30.334-14.427,35.003l7.843,4.705
			c22.216,6.639,36.014-3.202,61.273-43.615c24.815-39.703,55.577-176.865,57.233-184.316
			C595.108,504.929,591.621,456.1,559.372,439.975z"/>
		<path id="XMLID_112_" style="fill:#E0E0E0;" d="M361.747,424.728c-0.883-6.833-5.091-11.626-9.547-16.7
			c-5.204-5.928-11.103-12.646-11.698-23.335c-0.15-2.721-0.152-5.244-0.042-7.571c-0.443,2.768-0.792,5.961-1,9.644
			c-1.267,22.361-1.499,29.955-1.541,31.914c1.767,3.245,11.602,20.965,24.141,37.06
			C362.534,449.466,363.226,436.201,361.747,424.728z"/>
		<path id="XMLID_113_" style="fill:#E0E0E0;" d="M442.137,600.832c-1.529-0.085-2.894,0.124-4.036,0.637
			c-2.051,0.916-2.973,2.591-3.301,3.351c0.064,0.392,0.15,0.914,0.26,1.588c0.22,1.471,0.515,3.565,0.766,6.08
			c0.539,5.027,0.915,11.747,0.773,18.45c-0.013,1.675-0.086,3.349-0.18,4.995c-0.061,1.646-0.21,3.261-0.345,4.823
			c-0.11,1.563-0.305,3.066-0.483,4.49c-0.162,1.425-0.344,2.768-0.568,4.001c-0.207,1.232-0.397,2.362-0.565,3.363
			c-0.211,0.993-0.395,1.858-0.547,2.571c-0.303,1.423-0.476,2.236-0.476,2.236s0.101-0.825,0.278-2.269
			c0.088-0.721,0.195-1.596,0.318-2.599c0.08-1.008,0.17-2.144,0.268-3.385c0.114-1.237,0.178-2.581,0.214-4.005
			c0.053-1.422,0.115-2.918,0.087-4.47c-0.003-1.55,0.005-3.149-0.078-4.774c-0.049-1.625-0.122-3.272-0.254-4.918
			c-0.438-6.583-1.384-13.108-2.334-17.934c-0.457-2.417-0.919-4.408-1.251-5.79c-0.173-0.68-0.309-1.214-0.402-1.578
			c-0.035-0.127-0.056-0.206-0.079-0.291c-3.231-7.587-12.11-9.89-17.089-10.589c5.389,15.084,23.049,74.845-17.954,115.554
			c-0.46,2.273-1.448,11.741,12.239,17.379c14.815,6.099,21.26-2.197,21.935-3.148c0.061-0.131,0.147-0.315,0.26-0.556
			c0.228-0.507,0.561-1.251,0.985-2.197c0.843-1.915,2.003-4.684,3.289-8.054c1.299-3.365,2.698-7.341,4.074-11.644
			c0.695-2.149,1.326-4.397,2.005-6.672c0.588-2.297,1.266-4.616,1.8-6.967c0.521-2.353,1.128-4.695,1.53-7.036
			c0.444-2.334,0.907-4.63,1.194-6.876c0.331-2.24,0.67-4.407,0.828-6.478c0.173-2.068,0.458-4.023,0.483-5.837
			c0.076-1.815,0.145-3.479,0.207-4.953c0.011-1.475-0.047-2.762-0.06-3.823c-0.045-2.124-0.071-3.338-0.071-3.338
			s0.098,1.21,0.271,3.327c0.077,1.06,0.212,2.347,0.29,3.827c0.027,1.482,0.057,3.155,0.091,4.98
			c0.084,1.829-0.083,3.802-0.133,5.897c-0.034,2.098-0.244,4.296-0.442,6.575c-0.154,2.285-0.481,4.625-0.788,7.009
			c-0.265,2.392-0.734,4.787-1.119,7.202c-0.398,2.412-0.94,4.793-1.398,7.158c-0.548,2.341-1.051,4.658-1.625,6.878
			c-1.132,4.444-2.31,8.565-3.426,12.067c-1.103,3.507-2.117,6.403-2.865,8.425c-0.249,0.658-0.459,1.213-0.635,1.678
			c12.743,12.502,27.403,7.038,30.001,5.918c1.736-2.135,11.279-14.611,14.803-34.821
			C483.955,667.203,462.106,604.283,442.137,600.832z"/>
		<path id="XMLID_114_" style="fill:#F9AF80;" d="M407.81,593.92c-8.353-3.773-76.4-34.478-99.53-44.116
			c-18.329-7.634-37.339,14.968-44.186,24.28l17.447-0.874l0.696,1.303C325.863,656.2,382.697,698.99,392.772,706.158
			C433.694,664.306,410.899,601.75,407.81,593.92z"/>
		<path id="XMLID_167_" style="fill:#CCCCCC;" d="M415.703,607.195c0,0,18.38,37.796,11.908,78.957c0,0,10.873-2.071,13.461-27.441
			c2.589-25.37,0.259-33.395,0.259-33.395s13.461,19.415,13.461,53.587c0,34.171,11.649,28.735,15.274,19.416
			c3.624-9.32,4.401-52.293-6.99-75.332l-7.249-19.416c0,0,32.1,8.413,46.468,53.069c14.367,44.656,90.735-157.137,89.7-173.187
			c-1.035-16.05,12.944,19.157-5.177,71.449c-18.121,52.293-72.485,154.289-79.215,155.325c-6.731,1.035-22.781,7.766-22.781,7.766
			s-27.958,9.837-29.512,9.837c-1.553,0-34.171-17.086-34.171-17.086l-11.908-21.745
			C409.231,688.999,426.834,665.701,415.703,607.195z"/>
		<path id="XMLID_166_" style="fill:#CCCCCC;" d="M337.264,389.482c0,0,2.848,20.71,13.203,33.654
			c10.355,12.944,13.979,27.958,12.685,38.313c0,0-25.628-35.984-27.182-43.75C334.416,409.933,337.264,389.482,337.264,389.482z"/>
		<path id="XMLID_165_" style="fill:#CCCCCC;" d="M389.298,452.129c0,0-5.177-10.614,15.273-15.273
			c20.451-4.66,72.485-16.568,81.028-59.8l8.025,9.837c0,0,8.025,32.618-30.029,58.764s-63.942,26.405-69.637,31.324l43.232,28.217
			c0,0-14.238,46.08-6.731,47.115c7.507,1.035,30.806-6.213,40.125-34.689c9.319-28.476,16.568-29.77,16.568-29.77l-6.472,18.898
			c0,0,9.837-24.593,24.593-33.913c14.756-9.319,22.522-13.979,22.522-13.979l-6.99,10.614c0,0,12.944-9.578,26.923-8.802
			c0,0-23.816,6.99-33.654,22.781c-9.837,15.791-32.877,54.622-32.877,54.622l-22.263,18.639l-37.278,18.639l-7.507-26.146
			l12.426-43.232l-49.186-28.994l-8.284-9.319C369.105,467.662,380.237,454.459,389.298,452.129z"/>
		<path id="XMLID_164_" style="fill:#CCCCCC;" d="M413.891,530.309c0,0-10.873,26.405-16.568,39.09c0,0-25.111-10.096-36.76-22.522
			c-11.649-12.426-43.75-19.933-43.75-19.933l4.401,8.284c0,0-22.004-13.979-33.913-12.426
			c-11.908,1.553-21.228-30.547-17.862-43.75c0,0-7.507,11.649-8.025,16.827c0,0-12.426-20.451-8.284-39.349
			c0,0-16.568,17.345-11.132,48.409l2.848,15.274l-9.578-11.39c0,0,6.472,25.111,6.472,28.735c0,3.624-17.604,8.284-19.933,6.472
			c-2.33-1.812-2.848-42.714-0.259-51.516c2.589-8.802-8.025,23.04-10.096,45.044c-2.071,22.004-0.259,23.816-0.259,23.816
			l42.973-1.294l22.263-15.532l20.969-3.624l25.887,11.132l81.545,37.278L413.891,530.309z"/>
		<path id="XMLID_163_" style="fill:#CCCCCC;" d="M256.495,575.095c0,0,4.66-9.319,4.401-10.873
			c-0.259-1.553-10.096-10.096-10.096-10.096l-40.643,8.543l-6.99,4.66c0,0,24.593-2.071,31.065,1.553
			c6.472,3.624-31.842,12.685-45.821,43.491c0,0,4.401-21.745,25.111-32.618c0,0-24.981,3.495-35.466,20.775
			c0,0-3.495-6.019,0-14.173c0,0-11.261,17.28-12.426,27.764c-1.165,10.484,15.338,43.685,16.503,44.268
			c1.165,0.582,13.785-29.9,13.785-30.677s18.445-40.773,28.153-43.685C233.779,581.113,256.495,575.095,256.495,575.095z"/>
		<path id="XMLID_162_" style="fill:#CCCCCC;" d="M277.852,554.902c0,0-1.553,8.931,4.271,10.484c0,0,3.495-7.766,7.766-8.543
			c0,0,46.597,92.806,96.301,93.583s21.745-60.577,21.745-60.577s28.735,63.683-8.543,115.717l-6.99,3.883
			c0,0-84.652-69.119-110.28-134.356l-21.357,1.165C260.767,576.26,270.668,561.892,277.852,554.902z"/>
		<path id="XMLID_161_" style="fill:#CCCCCC;" d="M207.568,602.665c0.85-1.3-6.213,36.501,6.213,45.432
			c12.426,8.931,64.46,2.718,64.46,2.718s-34.171-3.495-52.034-8.931c0,0,53.975-0.777,70.673-3.883
			c0,0-21.745-33.006-18.251-62.518c0,0,50.092,78.051,70.284,95.525c0,0-72.226,17.474-123.871,11.649
			C225.042,682.657,174.561,653.145,207.568,602.665z"/>
		<path id="XMLID_160_" style="fill:#CCCCCC;" d="M344.253,342.885c0,0,20.969,43.102,53.587,48.151c0,0,14.756,4.66,23.299-5.048
			c0,0-4.271,21.357-15.921,21.357c-11.649,0-16.309-15.921-16.309-15.921s-9.708,15.144-12.038,25.24
			c-2.33,10.096-28.347-25.24-31.453-38.443c-3.107-13.203-2.33,14.756-1.553,16.309c0.777,1.553,18.251,22.522,18.251,22.522
			s3.107,27.182,3.495,29.123c0.388,1.942-0.388,15.533-0.388,15.533l3.883,4.271l16.697-12.038l3.495-3.883
			c0,0,3.495-21.745,6.99-25.24c3.495-3.495,28.735-13.979,28.735-13.979l20.969-5.825l20.969-17.862l3.107-23.687l-5.436-33.395
			c0,0-36.889,33.783-38.055,34.171c-1.165,0.388-34.948,5.825-34.948,5.825l-40.773-31.065
			C350.855,339.001,345.03,337.448,344.253,342.885z"/>
		<g id="XMLID_152_">
			<path id="XMLID_159_" style="fill:#CCCCCC;" d="M404.312,332.141c0,0-1.165-0.777-2.977-1.294
				c-1.812-0.518-14.885,1.294-18.898,6.472c0,0,14.368-0.906,17.215-1.294c2.848-0.388,4.401,0.906,4.401,0.906
				s2.201-1.553,4.013-1.683c1.812-0.129,15.791,1.941,15.791,1.941s-8.414-5.566-16.956-5.954L404.312,332.141z"/>
			<path id="XMLID_155_" style="fill:#CCCCCC;" d="M411.043,222.249c0,0,8.543,4.919,10.355,14.756c0,0,31.583-0.777,33.912,16.568
				c0,0-8.025-7.507-19.157-6.731c-11.132,0.777-19.933,2.589-20.451,5.178c-0.237,1.184-1.611,5.293-3.033,9.403
				c-1.08,0.551-2.019,1.617-2.404,3.605c-0.281,1.452-0.458,3.086-0.541,4.766c-0.307,0.861-0.494,1.382-0.494,1.382
				s0.168-0.047,0.451-0.132c-0.104,4.913,0.586,9.945,1.944,11.846c1.941,2.718,4.854,9.708,4.854,9.708
				c2.136-0.194,2.524,1.747,6.019,4.66c1.019,0.849,2.285,2.921,3.554,5.26c-0.352,3.436-14.491,0.241-14.491,0.241
				s5.566-4.401,5.178-9.061c0,0-4.789,5.177-11.649,5.177c-6.86,0-12.297-0.129-14.885-4.66c0,0,1.942,6.084,4.401,6.99
				c2.459,0.906-11.391,0-12.555,6.213c0,0,2.459,2.071,11.649,1.553l5.954,0.13l0.388,7.896l7.766,0.129l-0.518-7.378
				c0,0,5.566,8.414,12.426,9.061c1.038,0.098,2.058,0.003,3.044-0.223c3.12,5.144,25.562,16.273,25.562,16.273l20.192-39.608
				l3.624-46.856l-3.365-13.979C468.772,234.416,421.139,218.107,411.043,222.249z M419.845,265.481
				c1.294-3.107,4.142-13.461,12.944-12.944c8.802,0.518,17.086,12.167,17.086,12.167s-9.837,4.66-19.157,4.401
				c-5.281-0.147-9.395-1.291-11.972-2.255C419.251,266.41,419.648,265.953,419.845,265.481z M431.565,309.007
				c-0.191-0.954-0.471-1.983-0.827-3.067c-0.051-0.198-0.085-0.394-0.15-0.592c-0.163-0.499-0.365-0.983-0.587-1.457
				c-2.538-6.579-7.134-14.353-10.221-18.282c-2.616-3.329-2.828-11.677-2.6-17.652c0.032-0.019,0.064-0.038,0.095-0.057
				c2.205,2.913,6.773,7.418,13.96,7.418c10.614,0,18.38,1.036,19.674,5.436C451.837,283.908,440.407,299.417,431.565,309.007z"/>
			<path id="XMLID_154_" style="fill:#CCCCCC;" d="M486.569,264.834c-1.359-2.33-5.242,2.718-5.63,3.495
				c-0.388,0.777,1.359,6.601,1.359,6.601l-1.747,6.019c0,0-2.33,3.883-1.359,6.99c0.971,3.106,5.63,0,8.155-10.29
				C489.87,267.358,486.569,264.834,486.569,264.834z"/>
			<path id="XMLID_153_" style="fill:#CCCCCC;" d="M327.168,275.318c0,0,1.165-1.747,0.583-5.242
				c-0.583-3.495-6.069-6.981-6.213-5.825c-2.524,20.192,7.766,22.134,7.766,22.134s0-1.942-0.194-5.242
				C328.915,277.842,327.168,275.318,327.168,275.318z"/>
		</g>
		<path id="XMLID_151_" style="fill:#CCCCCC;" d="M332.863,185.23c0,0,2.589,38.831,4.919,43.491
			c2.33,4.66,18.898-17.862,106.656-14.756c1.829,0.065,15.015,3.365,15.532-6.99c0.518-10.355-47.374-21.487-81.545-16.568
			c0,0,33.913-13.979,74.038-1.294c0,0-25.37-46.08-97.337-24.593c0,0,27.958-20.451,79.215-4.919
			c51.257,15.533,48.927,46.339,48.927,47.115s-14.238,23.558-14.238,23.558s-65.236-16.05-94.23-2.33
			c-28.994,13.72-44.009,17.603-44.009,17.603l-5.954-50.48L332.863,185.23z"/>
		<path id="XMLID_150_" style="fill:#CCCCCC;" d="M304.646,132.938c0.19-1.018-2.071,15.274,8.025,22.522
			c10.096,7.249,23.557,8.543,29.253,6.213c5.695-2.33,20.451-15.532,48.151-15.791c27.699-0.259,52.551-8.543,51.775-26.923
			c-0.777-18.38,22.781,3.624,13.461,22.781c-9.319,19.157,66.272,45.044,88.276,22.004l4.919,11.132
			c0,0-5.436,20.451-27.958,19.416c0,0,25.887,12.944,38.313-5.177l7.248,5.695c0,0-10.355,20.71-31.324,20.969
			c0,0,19.933,3.365,34.43-17.603c0,0,0.518,17.086-1.294,20.451c-1.812,3.365-27.958,10.614-29.512,10.614
			c-1.553,0-45.303-34.171-45.821-34.948c-0.518-0.777-40.384-30.288-40.384-30.288l-23.558-9.061l-47.374,0.259l-26.146,9.319
			l-23.816,21.228l-9.837,18.38l-1.812,6.213l-16.827-11.132l-6.731-19.933l-0.518-8.802c0,0,9.578,10.096,30.029,3.624
			C325.615,174.099,297.915,168.921,304.646,132.938z"/>
		<g id="XMLID_20_">
			<path id="XMLID_119_" style="fill:#090B0C;" d="M600.02,509.252c-0.086-2.255-2.539-55.431-38.564-73.445
				c-26.235-13.118-62.9-49.48-65.632-52.208c-1.423-2.152-14.424-21.927-17.733-31.388c-1.82-5.2-4.024-7.982-6.735-8.506
				c-0.502-0.099-0.983-0.109-1.436-0.055l-1.273-14.538c0.933-1.468,1.638-2.683,2.08-3.566c1.053-2.107,2.192-8.549,3.295-16.858
				c1.139,0.665,2.356,1.009,3.647,1.009c0.015,0,0.03-0.001,0.046-0.001c5.671-0.035,10.644-6.666,14.86-12.878
				c5.609-8.268,5.791-33.634,0.306-42.409c-1.938-3.102-4.412-4.984-7.354-5.593c-0.773-0.161-1.514-0.192-2.234-0.177
				c0.024-0.123,0.049-0.252,0.066-0.345c0.234-1.284,0.719-4.865,1.332-9.65c8.019,3.07,30.518,10.998,48.997,10.998
				c6.711,0,12.892-1.047,17.65-3.753c19.411-11.036,25.072-20.266,23.3-37.982c-1.455-14.546-22.662-33.637-28.004-38.233
				c0.895-4.393,0.722-16.451-18.434-36.906c-24.491-26.151-42.159-39.571-70.756-40.344c-11.54-0.312-21.017,0.242-31.059,0.826
				c-15.326,0.892-31.179,1.816-56.985-0.044c-45.558-3.275-65.02,24.809-66.56,43.291c-0.315,3.784-1.879,8.555-3.534,13.606
				c-6.359,19.409-15.023,45.932,24.785,67.719l3.035,30.011c-3.728,0.276-7.919,1.921-10.829,6.576
				c-5.486,8.778-5.302,34.144,0.307,42.409c4.215,6.212,9.188,12.843,14.858,12.878c0.017,0,0.032,0.001,0.047,0.001
				c1.117,0,2.176-0.266,3.18-0.764c0.622,7.128,1.212,12.916,1.695,15.939c0.539,3.364,3.192,8.177,7.232,13.568l-0.271-0.006
				l-0.405,19.566c-3.253,3.682-7.176,11.587-8.135,28.501c-0.189,3.352-0.356,6.368-0.502,9.087
				c-8.653,5.934-52.462,35.819-71.772,45.934c-2.061,1.079-4.048,2.007-5.971,2.905c-18.439,8.609-31.773,14.841-67.481,128.897
				c-8.911,6.385-16.769,15.168-22.33,27.197c-24.489,52.976,6.453,72.534,10.509,74.812c2.25,2.365,17.083,17.26,33.976,17.718
				c0.265,0.008,0.529,0.011,0.793,0.011c7.165,0,13.654-2.687,19.331-7.939c2.395,0.034,4.78,0.058,7.161,0.058
				c4.319,0,10.628-0.286,14.868-0.388l5.436,49.251l152.218,0.259l-0.373-0.562c11.073,2.8,17.796-1.688,20.797-4.583
				c13.782,12.908,29.446,8.188,33.885,6.457l9.341,5.605l0.52,0.231c4.778,1.455,9.213,2.231,13.456,2.23
				c17.712-0.002,32.013-13.535,53.399-47.75c25.803-41.287,56.601-180.193,57.899-186.086l0.064-0.293L600.02,509.252z
				 M471.72,349.517c0.543,0.798,1.227,2.103,1.972,4.233c3.302,9.437,15,27.488,17.793,31.733
				c-2.177,7.344-19.367,56.097-92.893,63.545c-0.342,0.023-3.299,0.245-7.295,1.191c3.414-26.737,13.172-29.922,34.888-36.999
				c5.705-1.86,12.173-3.967,19.487-6.811C478.181,393.766,474.027,360.357,471.72,349.517z M468.779,364.686
				c-0.073,12.86-4.513,29.492-24.798,37.38c-7.193,2.797-13.594,4.883-19.241,6.723c-22.851,7.448-34.733,11.332-38.299,42.831
				c-6.177,2.124-13.179,5.957-17.139,12.805c-1.356-1.516-3.063-3.753-3.063-3.753c0.086-0.793,2.211-20.402,0.128-36.54
				c-1.063-8.243-5.944-13.802-10.665-19.179c-4.352-4.955-8.489-9.688-9.988-16.484l2.183-44.703
				c14.435,16.832,39.272,36.396,56.544,36.396c22.525,0,48.139-28.585,60.057-45.002L468.779,364.686z M405.412,344.438
				c-17.086,0-23.493-5.048-23.493-5.048c1.168,1.168,4.493,5.196,10.209,6.801l-5.399,6.67c-4.485-0.648-9.079-3.245-13.551-6.987
				c0.901-2.339,3.872-9.118,9.346-13.151c6.56-4.836,32.8-4.573,37.39-2.808c2.865,1.103,8.361,7.868,11.831,12.76
				c-4.68,5.162-8.545,9.039-10.516,10.574c-0.802-1.349-1.841-4.071-2.491-6.658l-0.361-1.44c1.426-0.551,4.632-2.042,6.838-4.984
				C425.216,340.166,420.751,344.438,405.412,344.438z M484.616,253.386c1.632,0.35,3.084,1.525,4.314,3.493
				c4.843,7.748,4.009,31.104-0.211,37.323c-2.196,3.236-7.339,10.812-11.034,10.835c-0.367,0.033-1.486-0.016-2.958-1.936
				c0.321-2.665,0.635-5.453,0.942-8.288l-0.052,0.642c2.695-0.738,3.915-3.589,3.915-3.589c-1.574,0.746-2.738,0.535-3.556,0.073
				c1.523-14.506,2.802-29.825,3.427-37.663l0.129,0.188C479.557,254.447,482.01,252.829,484.616,253.386z M322.878,198.821
				c-2.795,1.26-7.746,3.078-12.967,3.099c-1.82-1.804-3.386-3.621-4.712-5.449c5.542,2.05,14.16,1.676,18.028,1.372
				C323.092,198.207,322.974,198.537,322.878,198.821z M315.518,185.619c-7.998,0.706-13.711-4.856-16.976-9.353
				c-0.062-8.631,2.683-17.049,5.193-24.711c1.743-5.318,3.389-10.342,3.749-14.67c1.393-16.706,19.337-42.077,61.583-39.031
				c26.106,1.882,42.112,0.95,57.59,0.049c9.94-0.579,19.337-1.126,30.66-0.82c26.954,0.728,43.873,13.662,67.483,38.871
				c21.183,22.618,17.084,33.477,17.063,33.535l-0.762,1.633l1.39,1.148c0.22,0.183,18.89,15.73,25.377,29.233
				c-1.771,13.208-16.244,18.014-32.565,18.934c-8.67,0.488-19.814-6.051-29.172-13.096c11.435,3.535,27.86,7.293,36.161,2.741
				c12.038-6.601,13.979-15.533,13.979-15.533s-10.484,12.426-17.862,12.426c-7.378,0-37.666-8.543-42.714-16.697
				c0,0,32.23-0.388,40.773-13.979c0,0-13.979,7.378-27.57,6.213c-8.319-0.713-24.195-6.225-35.266-10.396
				c-7.731-5.549-18.369-11.365-32.321-15.35c-0.559-0.778-0.543-1.654,0.539-2.601c4.142-3.624,3.624-22.781,3.624-22.781
				s-3.624,5.695-7.766,11.391c-2.748,3.779-10.724,7.775-16.244,10.043c-6.69-0.799-13.921-1.176-21.737-0.982
				c-35.454,0.865-55.198,15.156-65.844,27.98C329.251,182.235,322.619,184.992,315.518,185.619z M331.494,305.037
				c-3.696-0.023-8.837-7.599-11.033-10.835c-4.22-6.217-5.055-29.573-0.212-37.323c3.076-4.92,7.977-4.665,10.332-4.195
				c0.568,8.714,1.618,24.442,2.737,39.21c-0.005,0.003-0.011,0.005-0.016,0.008c-0.821,0.489-2.009,0.73-3.627-0.036
				c0,0,1.22,2.851,3.915,3.589c0.21,2.72,0.422,5.391,0.632,7.947C332.869,305.039,331.874,305.068,331.494,305.037z
				 M338.496,238.653c-0.017,0.068-0.046,0.189-0.073,0.299c-3.728,2.298-6.143,4.072-7.03,4.746l-4.322-42.728
				c1.264-4.197,14.577-43.057,72.767-44.476c9.518-0.23,18.135,0.433,25.937,1.696c16.068,4.478,37.117,13.245,40.797,28.982
				c2.951,12.62,1.553,36.501-0.777,36.501c-2.219,0-22.183-5.747-61.315-3.946c-10.349-0.043-19.765,1.345-27.835,3.3
				c-16.863,4.084-30.076,10.943-37.853,15.699L338.496,238.653z M340.615,298.2c-2.143-5.819-1.658-27.18-1.474-35.221
				c0.038-1.659,0.065-2.909,0.065-3.581c0-2.82,2.043-12.119,3.288-17.426c7.635-4.529,19.941-10.709,35.249-14.417
				c29.991-7.265,58.5-2.48,84.961,14.196c1.654,6.095,9.213,36.018,3.225,52.984c-3.196,9.054-13.349,23.143-23.317,35.31
				c-11.893-11.366-13.317-14.214-37.819-13.955c-24.174,0.255-30.898,0.518-43.065,15.662
				C350.311,317.889,342.671,303.781,340.615,298.2z M339.46,386.766c0.208-3.684,0.557-6.876,1-9.644
				c-0.109,2.327-0.108,4.849,0.042,7.571c0.595,10.689,6.494,17.407,11.698,23.335c4.456,5.075,8.664,9.868,9.547,16.7
				c1.479,11.473,0.787,24.738,0.313,31.012c-12.538-16.095-22.373-33.814-24.141-37.06
				C337.962,416.721,338.194,409.127,339.46,386.766z M220.526,497.758c16.357-38.99,26.04-43.521,38.007-49.108
				c1.97-0.92,4.006-1.871,6.161-3c18.134-9.499,56.228-35.268,69.302-44.202c-0.735,14.348-0.746,17.637-0.746,17.804v0.58
				l0.273,0.513c1.091,2.055,27.024,50.482,52.204,64.121c19.613,10.622,34.513,19.717,39.753,22.973
				c-4.795,7.369-19.974,33.94-23.156,78.895c-4.554-2.052-10.718-4.826-17.752-7.983c-9.529-5.904-20.853-13.503-25.304-18.789
				c-8.284-9.837-17.086-13.979-29.512-17.345c0,0,9.578,6.213,12.167,10.096c2.589,3.883-21.745-5.436-31.841-13.203
				c-10.096-7.766-28.476-1.553-28.476-1.553s-11.649-7.507-14.238-14.756s-1.553-24.075-1.553-24.075s-4.142,16.568-1.553,25.629
				c0,0-10.096-10.873-11.908-23.04c-1.812-12.167-2.33-28.476-2.33-28.476s-2.94,16.281-1.654,30.402
				c-0.891-2.442-1.703-4.74-2.08-6.97c-0.352-1.954-0.562-3.766-0.675-5.376c-0.132-1.612-0.131-3.021-0.106-4.183
				c-0.015-1.164,0.139-2.069,0.165-2.693c0.051-0.622,0.078-0.954,0.078-0.954s-0.045,0.329-0.13,0.947
				c-0.06,0.62-0.264,1.523-0.314,2.689c-0.088,1.165-0.168,2.582-0.123,4.213c0.025,1.628,0.137,3.47,0.384,5.461
				c0.453,3.992,1.431,8.59,2.6,13.445c0.573,2.431,1.184,4.932,1.682,7.476c0.265,1.268,0.468,2.56,0.646,3.83l0.207,1.894
				l0.093,1.994c0.068,1.981,0.483,3.91,0.995,5.769c-2.189-3.973-3.951-6.204-2.805-0.475c0.259,1.294,2.847,15.274,1.294,18.121
				c-1.553,2.847-24.852,3.624-32.359,7.507C211.729,559.141,214.875,519.882,220.526,497.758z M197.472,587.909
				c0,0-22.91,8.543-26.017,43.491c0,0-5.598-10.494-0.968-27.796c0.171-0.38,0.316-0.743,0.493-1.126
				c17.993-38.92,62.025-41.699,83.969-40.466c1.513,1.606,3.655,4.187,1.935,6.482c-2.33,3.107-26.017,6.99-42.326,19.804
				c-16.309,12.814-29.123,27.958-31.842,57.47C182.716,645.767,171.067,607.713,197.472,587.909z M231.015,680.461
				c-4.349-2.113-37.871-19.903-25.237-60.142c10.838-34.519,38.659-40.264,49.366-41.181l-0.039,0.061l23.72-1.186
				c21.694,40.285,46.538,71.122,67.4,92.94C331.57,673.516,282.662,681.263,231.015,680.461z M392.772,706.158
				c-10.075-7.168-66.908-49.958-110.535-131.645l-0.696-1.303l-17.447,0.874c6.847-9.312,25.856-31.914,44.186-24.28
				c23.13,9.638,91.177,40.342,99.53,44.116C410.899,601.75,433.694,664.306,392.772,706.158z M471.102,711.262
				c-7.507,8.802-26.923,6.99-24.334-6.213c1.881-9.594,0.51-27.817-0.381-37.068c0.056-2.013,0.207-3.914,0.125-5.679
				c-0.033-1.825-0.064-3.497-0.091-4.98c-0.078-1.48-0.213-2.767-0.29-3.827c-0.172-2.117-0.271-3.327-0.271-3.327
				s0.026,1.214,0.071,3.338c0.013,1.061,0.071,2.348,0.06,3.823c-0.062,1.475-0.131,3.138-0.207,4.953
				c-3.055,31.529-17.138,36.555-23.092,34.483c-5.954-2.071-5.695-8.284-5.695-8.284c5.907-13.729,5.61-32.175,4.516-44.305
				c0.253-22.423-5.655-41.683-8.398-49.361c4.978,0.698,13.857,3.002,17.089,10.589c0.023,0.085,0.044,0.164,0.079,0.291
				c0.093,0.364,0.229,0.898,0.402,1.578c0.332,1.382,0.794,3.373,1.251,5.79c0.95,4.826,1.896,11.351,2.334,17.934
				c0.132,1.645,0.205,3.293,0.254,4.918c0.083,1.625,0.075,3.224,0.078,4.774c0.027,1.552-0.035,3.048-0.087,4.47
				c-0.036,1.423-0.1,2.768-0.214,4.005c-0.098,1.24-0.188,2.377-0.268,3.385c-0.123,1.004-0.23,1.879-0.318,2.599
				c-0.177,1.444-0.278,2.269-0.278,2.269s0.173-0.813,0.476-2.236c0.152-0.713,0.336-1.578,0.547-2.571
				c0.168-1.001,0.358-2.131,0.565-3.363c0.224-1.232,0.406-2.575,0.568-4.001c0.178-1.424,0.373-2.927,0.483-4.49
				c0.134-1.561,0.284-3.177,0.345-4.823c0.094-1.646,0.167-3.319,0.18-4.995c0.142-6.703-0.235-13.424-0.773-18.45
				c-0.25-2.516-0.546-4.609-0.766-6.08c-0.11-0.673-0.195-1.195-0.26-1.588c0.328-0.76,1.25-2.435,3.301-3.351
				c1.142-0.513,2.507-0.722,4.036-0.637c17.413,3.008,36.249,51.229,37.427,82.812
				C478.479,694.442,475.504,706.101,471.102,711.262z M521.582,682.268c-11.391,18.121-28.994,15.791-28.994,15.791
				c4.807-26.963-12.486-55.939-19.328-66.105c-4.079-8.816-9.433-18.123-16.392-27.854l22.777,14.485
				c0,0-9.964-12.384-19.286-17.539c-5.501-3.042-13.783-4.376-16.605-4.747c-0.64-0.505-1.197-1.097-1.612-1.79
				c-1.251-2.092-1.031-4.983,0.654-8.593c3.988-8.544,13.665-17.515,23.024-26.19c6.956-6.45,13.529-12.54,17.187-18.029
				c2.001-3,4.513-7.848,7.692-13.985c9.639-18.604,22.47-44.842,38.391-57.074l3.971-3.863
				c-19.904,7.463-35.908,38.353-46.5,58.794c-1.026,1.981-2,3.858-2.917,5.596c1.275-8.309,4.372-23.574,10.887-33.346
				c9.32-13.979,18.251-21.745,18.251-21.745s-24.075,19.416-28.347,33.395c-4.271,13.979-9.708,27.57-12.814,30.288
				c-3.106,2.718,4.66-22.91,4.66-22.91s-9.708,23.299-13.591,27.57c-3.883,4.271-33.007,23.299-41.549,21.745
				c-8.543-1.553,5.3-50.171,10.999-60.034l-2.111-1.344c-0.171-0.109-17.441-11.071-42.079-24.418
				c-5.089-2.755-10.27-7.145-15.284-12.325c3.323-6.95,10.679-10.586,16.778-12.456c0,0,9.421-1.907,9.54-1.916
				c43.013-4.356,67.152-22.54,79.828-37.026c9.78-11.178,14.383-21.748,16.297-27.204c9.35,9.146,40.402,38.602,64.266,50.534
				c32.25,16.125,35.737,64.953,35.976,69.169C574.366,597.482,532.973,664.147,521.582,682.268z"/>
			<circle id="XMLID_135_" style="fill:#090B0C;" cx="327.685" cy="509.082" r="10.484"/>
			<circle id="XMLID_136_" style="fill:#090B0C;" cx="399.523" cy="517.625" r="11.649"/>
			<path id="XMLID_137_" style="fill:#090B0C;" d="M385.401,251.094c2.24,2.464,7.839,7.839,10.75,18.589
				c0,0-0.672-15.229-6.719-21.724c-6.047-6.495-29.787-6.719-34.714-1.344c-4.927,5.375-4.927,9.854-4.927,9.854
				s4.927-7.167,10.526-7.167C365.917,249.303,383.162,248.631,385.401,251.094z"/>
			<path id="XMLID_138_" style="fill:#090B0C;" d="M366.589,261.396c-0.224,3.135,2.24,5.543,2.24,5.543l6.999-0.056
				c2.016-2.184,1.512-5.935,1.512-5.935c4.031,1.792,5.599,5.823,5.599,5.823l4.255-0.448l-0.896-1.12
				c-2.688-4.479-8.286-7.839-14.334-7.839c-6.047,0-12.094,5.375-13.662,6.495c-1.568,1.12-3.583,1.568-3.583,1.568l5.151,0.672
				C363.901,261.844,366.589,261.396,366.589,261.396z"/>
			<path id="XMLID_139_" style="fill:#090B0C;" d="M381.062,272.595c-7.391,1.932-21.248-0.084-21.248-0.084
				C371.488,280.405,381.062,272.595,381.062,272.595z"/>
			<path id="XMLID_140_" style="fill:#090B0C;" d="M392.008,302.829c-4.815,0.336-3.695,3.471-3.695,3.471s0.224-1.68,2.799-1.904
				c2.576-0.224,2.016,3.023,6.607,1.344C397.719,305.741,396.823,302.493,392.008,302.829z"/>
			<path id="XMLID_141_" style="fill:#090B0C;" d="M388.316,294.305c0.73,3.104,4.812,3.598,4.812,3.598
				c-6.271-3.695,1.792-15.341,1.792-15.341c-4.394,4.359-6.204,7.492-6.622,9.741c-2.261,0.882-6.193,2.926-8.047,6.944
				c-2.688,5.823,0,9.294,3.471,9.182c0,0-5.039-4.367-0.448-10.302C385.444,295.321,387.132,294.452,388.316,294.305z"/>
			<path id="XMLID_142_" style="fill:#090B0C;" d="M445.647,249.303c5.599,0,10.526,7.167,10.526,7.167s0-4.479-4.927-9.854
				c-4.927-5.375-28.667-5.151-34.714,1.344c-6.047,6.495-6.719,21.724-6.719,21.724c2.911-10.75,8.51-16.125,10.75-18.589
				C422.803,248.631,440.048,249.303,445.647,249.303z"/>
			<path id="XMLID_143_" style="fill:#090B0C;" d="M434.001,257.365c-6.047,0-11.646,3.359-14.333,7.839l-0.896,1.12l4.255,0.448
				c0,0,1.568-4.031,5.599-5.823c0,0-0.504,3.751,1.512,5.935l6.999,0.056c0,0,2.464-2.408,2.24-5.543c0,0,2.687,0.448,6.719,4.703
				l5.151-0.672c0,0-2.016-0.448-3.583-1.568C446.095,262.74,440.048,257.365,434.001,257.365z"/>
			<path id="XMLID_144_" style="fill:#090B0C;" d="M424.902,272.595c0,0,9.574,7.811,21.248-0.084
				C446.151,272.51,432.293,274.526,424.902,272.595z"/>
			<path id="XMLID_145_" style="fill:#090B0C;" d="M414.852,304.397c2.576,0.224,2.799,1.904,2.799,1.904s1.12-3.135-3.695-3.471
				c-4.815-0.336-5.711,2.911-5.711,2.911C412.837,307.42,412.277,304.173,414.852,304.397z"/>
			<path id="XMLID_146_" style="fill:#090B0C;" d="M417.667,292.302c-0.418-2.249-2.228-5.382-6.622-9.741
				c0,0,8.063,11.646,1.792,15.341c0,0,4.083-0.493,4.812-3.598c1.184,0.147,2.872,1.017,5.042,3.821
				c4.591,5.935-0.448,10.302-0.448,10.302c3.471,0.112,6.159-3.359,3.471-9.182C423.86,295.228,419.928,293.184,417.667,292.302z"
				/>
			<path id="XMLID_147_" style="fill:#090B0C;" d="M406.254,334.859c-2.617,1.236-2.977,0-4.53-0.388
				c-1.553-0.388-16.568,0.777-19.545,2.977c0,0,17.862-1.165,19.027-0.906c1.165,0.259,2.2,1.553,2.718,1.424
				c0.518-0.129,1.553-1.036,2.459-1.553c0.906-0.518,16.568,0.906,17.733,1.036C425.281,337.578,410.914,332.659,406.254,334.859z"
				/>
			<path id="XMLID_148_" style="fill:#090B0C;" d="M331.553,286.328c0,0-0.563-4.646-2.675-7.11
				c-2.112-2.464-0.211-2.464,0.281-6.758c0.493-4.294-3.449-14.573-9.433-7.251c0,0,5.632,0,5.632,3.942
				c0,3.942-0.282,5.913,1.408,8.166s0.563,7.603,1.408,8.448C329.018,286.609,331.553,286.328,331.553,286.328z"/>
			<path id="XMLID_149_" style="fill:#090B0C;" d="M480.329,279.218c-2.112,2.464-2.675,7.11-2.675,7.11s2.534,0.281,3.379-0.563
				c0.845-0.845-0.282-6.195,1.408-8.448c1.69-2.253,1.408-4.224,1.408-8.166c0-3.942,5.632-3.942,5.632-3.942
				c-5.984-7.322-9.926,2.957-9.433,7.251C480.54,276.754,482.441,276.754,480.329,279.218z"/>
		</g>
	</g>
</g>
</svg>
